<?xml version="1.0" standalone="no"?>
<!DOCTYPE svg PUBLIC "-//W3C//DTD SVG 20010904//EN"
 "http://www.w3.org/TR/2001/REC-SVG-20010904/DTD/svg10.dtd">
<svg version="1.0" xmlns="http://www.w3.org/2000/svg"
 width="272.000000pt" height="272.000000pt" viewBox="0 0 272.000000 272.000000"
 preserveAspectRatio="xMidYMid meet">
<metadata>
Created by potrace 1.14, written by Peter Selinger 2001-2017
</metadata>
<g transform="translate(0.000000,272.000000) scale(0.100000,-0.100000)"
fill="#000000" stroke="none">
<path d="M1337 2665 c-1 -2 -40 -5 -87 -9 -298 -22 -574 -147 -793 -359 -98
-96 -139 -146 -206 -254 -101 -164 -163 -343 -186 -538 -7 -62 -7 -240 0 -285
2 -14 7 -47 10 -74 8 -60 48 -200 82 -286 107 -268 347 -527 608 -657 68 -34
188 -83 218 -89 11 -2 34 -8 51 -13 17 -5 47 -12 66 -15 19 -3 46 -9 60 -12
14 -3 90 -8 170 -10 216 -5 399 33 588 123 326 155 568 433 680 783 46 142 57
221 57 400 -1 281 -65 490 -223 726 -210 312 -577 529 -943 559 -110 9 -149
12 -152 10z"/>
</g>
</svg>
